<?xml version="1.0" encoding="utf-8"?>
<svg version="1.0" width="490.50299" height="630.61700" id="svg2" xmlns="http://www.w3.org/2000/svg">
  <g id="g12" transform="translate(20.0,20.0)">
    <path d="M 99.5877,522.948 L 101.939,521.94 L 103.619,520.26 L 104.627,517.909 L 104.627,515.557 L 103.619,513.205 L 101.939,511.526 L 99.5877,510.518 L 97.2357,510.518 L 94.8847,511.526 L 93.2047,513.205 L 92.1927,515.557 L 92.1927,517.909 L 93.2047,520.26 L 94.8847,521.94 L 97.2357,522.948 L 99.5877,522.948" id="path14" style="fill:#000000;fill-rule:evenodd;stroke:none"/>
    <path d="M 99.5877,522.948 L 101.939,521.94 L 103.619,520.26 L 104.627,517.909 L 104.627,515.557 L 103.619,513.205 L 101.939,511.526 L 99.5877,510.518 L 97.2357,510.518 L 94.8847,511.526 L 93.2047,513.205 L 92.1927,515.557 L 92.1927,517.909 L 93.2047,520.26 L 94.8847,521.94 L 97.2357,522.948 L 99.5877,522.948" id="path16" style="fill:#000000;fill-rule:evenodd;stroke:none"/>
    <path d="M 96.5637,15.2516 L 93.5406,16.2596 L 90.1767,18.6117 L 88.1617,21.6346 L 86.8177,24.9977 L 86.8177,28.3577 L 88.1617,31.3807 L 90.1767,34.7407 L 93.5406,36.7557 L 96.5637,37.7637 L 99.9237,37.7637 L 102.947,36.7557 L 106.306,34.7407 L 108.322,31.3807 L 109.666,28.3577 L 109.666,24.9977 L 108.322,21.6346 L 106.306,18.6117 L 102.947,16.2596 L 99.9237,15.2516 L 96.5637,15.2516 M 97.5717,24.9977 L 96.5637,26.0057 L 96.5637,27.0137 L 97.5717,28.3577 L 98.9156,28.3577 L 99.9237,27.0137 L 99.9237,26.0057 L 98.9156,24.9977 L 97.5717,24.9977 M 97.5717,26.0057 L 97.5717,27.0137 L 98.9156,27.0137 L 98.9156,26.0057 L 97.5717,26.0057" id="path18" style="fill:none;stroke:#000000;stroke-width:1.86667001;stroke-linejoin:round"/>
    <path d="M 118.068,27.0137 L 122.771,27.3497 L 127.81,27.3497 L 132.513,27.6857 L 137.556,28.0217 L 142.595,28.6937 L 147.299,29.0297 L 152.338,29.7007 L 157.045,30.0367 L 161.748,30.7087 L 166.787,31.3807 L 171.49,32.0527 L 176.533,32.7247 L 181.236,33.7327 L 186.275,34.4047 L 190.978,35.4117 L 195.681,36.4197 L 200.724,37.4277 L 205.427,38.4357 L 210.131,39.4437 L 214.834,40.7867 L 219.541,41.7947 L 224.244,43.1427 L 228.947,44.4867 L 233.986,45.8297 L 238.689,47.1736 L 243.06,48.5177 L 247.763,49.8617 L 252.467,51.5406 L 257.17,53.2206 L 261.877,54.5647 L 266.58,56.2437 L 270.947,57.9236 L 275.65,59.9397 L 280.017,61.6187 L 284.724,63.2986 L 289.092,65.3187 L 293.795,67.3337 L 298.162,69.3497 L 302.869,71.3657 L 307.236,73.3807 L 311.603,75.3967 L 315.97,77.4117 L 320.338,79.7637 L 324.709,82.1157 L 329.076,84.1307 L 333.443,86.4867 L 337.81,88.8376 L 341.842,91.5257 L 346.213,93.8766 L 350.244,96.2287 L 354.611,98.9156 L 358.642,101.604 L 363.009,103.955 L 367.045,106.647 L 371.076,109.334 L 375.107,112.358 L 379.138,115.045 L 383.17,117.733 L 387.205,120.756 L 391.236,123.78 L 394.931,126.467 L 398.963,129.494 L 402.658,132.518 L 406.689,135.541 L 410.388,138.901 L 414.084,141.924 L 417.779,144.948 L 421.474,148.311 L 425.17,151.67 L 428.869,154.694 L 432.564,158.053 L 435.924,161.412 L 439.619,164.772 L 442.978,168.131 L 446.674,171.83 L 450.037,175.19 M 78.7557,27.0137 L 73.7167,27.3497 L 69.0087,27.3497 L 63.9697,27.6857 L 59.2667,28.0217 L 54.2277,28.6937 L 49.5207,29.0297 L 44.4817,29.7007 L 39.7787,30.0367 L 34.7397,30.7087 L 30.0367,31.3807 L 24.9937,32.0527 L 20.2906,32.7247 L 15.5877,33.7327 L 10.5487,34.4047 L 5.84166,35.4117 L 1.13765,36.4197 L 0.46666,36.4197" id="path20" style="fill:none;stroke:#000000;stroke-width:0.93324971;stroke-linejoin:round;stroke-dasharray:2.79974914,2.79974914;stroke-miterlimit:4;stroke-dashoffset:0"/>
    <path d="M 110.674,26.6777 L 157.045,26.6777 L 147.299,21.6346 L 157.045,26.6777 L 147.299,31.3807" id="path22" style="fill:none;stroke:#000000;stroke-width:1.86667001;stroke-linejoin:round"/>
    <path d="M 98.2437,516.901 L 98.2437,38.7717 M 103.955,38.7717 L 423.154,590.151" id="path24" style="fill:none;stroke:#000000;stroke-width:0.93333298;stroke-linejoin:round"/>
    <path d="M 115.381,88.8376 L 113.361,100.26 M 116.052,88.8376 L 113.701,100.26 M 114.037,88.8376 L 116.052,88.8376 M 111.681,100.26 L 115.381,100.26" id="path26" style="fill:none;stroke:#000000;stroke-width:0.93333298;stroke-linejoin:round"/>
    <path d="M 98.2437,124.787 L 99.2516,124.787 L 100.26,124.787 L 101.267,124.451 L 102.275,124.451 L 103.283,124.451 L 104.291,124.451 L 105.299,124.451 L 106.306,124.451 L 107.314,124.116 L 108.322,124.116 L 108.994,124.116 L 110.002,123.78 L 111.009,123.78 L 112.017,123.78 L 113.025,123.444 L 114.037,123.444 L 115.045,123.108 L 116.052,123.108 L 117.06,122.772 L 117.732,122.772 L 118.74,122.436 L 119.748,122.436 L 120.756,122.1 L 121.763,121.764 L 122.771,121.428 L 123.443,121.428 L 124.451,121.092 L 125.459,120.756 L 126.467,120.42 L 127.474,120.42 L 128.146,120.084 L 129.154,119.748 L 130.162,119.412 L 131.17,119.077 L 131.842,118.741 L 132.849,118.405 L 133.857,118.069 L 134.869,117.733 L 135.541,117.397 L 136.549,117.061 L 137.556,116.389 L 138.228,116.053 L 139.236,115.717 L 140.244,115.381 L 140.916,114.709 L 141.924,114.373 L 142.931,114.037 L 143.603,113.701 L 144.611,113.03 L 145.283,112.694 L 146.291,112.022 L 146.963,111.686 M 141.924,120.756 L 146.963,112.022 L 137.556,110.006 M 98.2437,516.901 L 277.666,337.479" id="path28" style="fill:none;stroke:#000000;stroke-width:0.93333298;stroke-linejoin:round"/>
    <path d="M 292.451,334.451 L 292.451,334.451 L 292.451,334.116 L 292.451,334.116 L 292.451,334.116 L 292.451,334.116 L 292.451,334.116 L 292.451,333.78 L 292.451,333.78 L 292.451,333.78 L 292.451,333.78 L 292.451,333.78 L 292.451,333.78 L 292.451,333.78 L 292.451,333.444 L 292.451,333.444 L 292.115,333.444 L 292.115,333.444 L 292.115,333.444 L 292.115,333.444 L 292.115,333.444 L 292.115,333.444 L 292.115,333.444 L 292.115,333.108 L 292.115,333.108 L 291.779,333.108 L 291.779,333.108 L 291.779,333.108 L 291.779,333.108 L 291.779,333.108 L 291.779,333.108 L 291.779,333.108 L 291.779,333.108 L 291.443,333.108 L 291.443,332.772 L 291.443,332.772 L 291.443,332.772 L 291.443,332.772 L 291.443,332.772 L 291.107,332.772 L 291.107,332.772 L 291.107,332.772 L 291.107,332.436 L 290.771,332.436 L 290.771,332.436 L 290.771,332.436 L 290.771,332.436 L 290.771,332.1 L 290.435,332.1 L 290.435,332.1 L 290.435,332.1 L 290.435,331.764 L 290.099,331.764 L 290.099,331.764 L 290.099,331.764 L 290.099,331.428 L 289.763,331.428 L 289.763,331.428 L 289.763,331.428 L 289.427,331.092 L 289.427,331.092 L 289.427,331.092 L 289.092,330.756 L 289.092,330.756 L 289.092,330.756 L 289.092,330.42 L 288.756,330.42 L 288.756,330.42 L 288.756,330.084 L 288.42,330.084 L 288.42,330.084 L 288.42,329.748 L 288.084,329.748 L 288.084,329.748 L 287.748,329.412 L 287.748,329.412 L 287.748,329.412 L 287.412,329.077 L 287.412,329.077 L 287.412,329.077 L 287.076,328.741 L 287.076,328.741 L 286.74,328.741 L 286.74,328.405 L 286.74,328.405 L 286.404,328.405 L 286.404,328.069 L 286.068,328.069 L 286.068,328.069 L 286.068,328.069 L 285.732,327.733 L 285.732,327.733 L 285.396,327.733 L 285.396,327.733 L 285.06,327.733 L 285.06,327.397 L 284.724,327.397 L 284.724,327.397 L 284.724,327.397 L 284.388,327.397 L 284.388,327.397 L 284.052,327.061 L 284.052,327.061 L 283.717,327.061 L 283.717,327.061 L 283.381,327.061 L 283.381,327.061 L 283.045,327.061 L 283.045,327.061 L 282.709,327.061 L 282.709,327.061" id="path30" style="fill:none;stroke:#000000;stroke-width:1.86667001;stroke-linejoin:round"/>
    <path d="M 282.709,327.061 L 282.373,327.061 L 282.373,327.061 L 282.037,327.061 L 282.037,327.061 L 282.037,327.061 L 281.701,327.061 L 281.361,327.061 L 281.361,327.061 L 281.025,327.061 L 281.025,327.397 L 280.689,327.397 L 280.689,327.397 L 280.353,327.397 L 280.353,327.397 L 280.017,327.397 L 280.017,327.397 L 279.681,327.733 L 279.681,327.733 L 279.345,327.733 L 279.345,327.733 L 279.01,327.733 L 279.01,327.733 L 278.674,327.733 L 278.674,328.069 L 278.338,328.069 L 278.338,328.069 L 278.002,328.069 L 278.002,328.069 L 277.666,328.069 L 277.666,328.069 L 277.33,328.405 L 277.33,328.405 L 276.994,328.405 L 276.994,328.405 L 276.658,328.405 L 276.322,328.405 L 276.322,328.405 L 275.986,328.405 L 275.986,328.405 L 275.65,328.741 L 275.65,328.741 L 275.314,328.741 L 275.314,328.741 L 274.978,328.741 L 274.978,328.741 L 274.642,328.741 L 274.642,328.741 L 274.306,328.741 L 274.306,328.741 L 273.97,328.741 L 273.97,328.741 L 273.635,328.741 L 273.635,328.741 L 273.299,328.741 L 273.299,328.741 L 272.963,328.741 L 272.963,328.741 L 272.627,328.741 L 272.627,328.741 L 272.291,328.741 L 272.291,328.741 L 271.955,328.741 L 271.955,328.405 L 271.619,328.405 L 271.619,328.405 L 271.283,328.405 L 271.283,328.405 L 270.947,328.405 L 270.947,328.405 L 270.611,328.405 L 270.611,328.405 L 270.275,328.405 L 270.275,328.405 L 270.275,328.405 L 269.939,328.405 L 269.939,328.405 L 269.603,328.405 L 269.603,328.405 L 269.267,328.405 L 269.267,328.405 L 268.931,328.405 L 268.931,328.405 L 268.931,328.405 L 268.595,328.405 L 268.595,328.405 L 268.259,328.405 L 268.259,328.405 L 268.259,328.405 L 267.924,328.405 L 267.924,328.405 L 267.588,328.405 L 267.588,328.741 L 267.588,328.741 L 267.252,328.741 L 267.252,328.741 L 266.916,328.741 L 266.916,328.741 L 266.916,329.077 L 266.58,329.077 L 266.58,329.077 L 266.58,329.077 L 266.244,329.412 L 266.244,329.412 L 266.244,329.412 L 265.908,329.412 L 265.908,329.748 L 265.908,329.748 L 265.572,329.748 L 265.572,330.084 L 265.572,330.084 L 265.236,330.084 L 265.236,330.42 L 265.236,330.42 L 264.9,330.42 L 264.9,330.756 L 264.9,330.756 L 264.9,331.092 L 264.564,331.092 L 264.564,331.092 L 264.564,331.428 L 264.564,331.428 L 264.228,331.764 L 264.228,331.764 L 264.228,331.764 L 264.228,332.1 L 263.892,332.1 L 263.892,332.436 L 263.892,332.436 L 263.892,332.772 L 263.892,332.772 L 263.556,332.772 L 263.556,333.108 L 263.556,333.108 L 263.556,333.108 L 263.556,333.444 L 263.556,333.444 L 263.22,333.78 L 263.22,333.78 L 263.22,333.78 L 263.22,334.116 L 263.22,334.116 L 263.22,334.116 L 262.885,334.451 L 262.885,334.451 L 262.885,334.451 L 262.885,334.787 L 262.885,334.787 L 262.885,334.787 L 262.885,335.123 L 262.885,335.123 L 262.885,335.123 L 262.549,335.123 L 262.549,335.123 L 262.549,335.459 L 262.549,335.459 L 262.549,335.459 L 262.549,335.459 L 262.549,335.795 L 262.549,335.795 L 262.549,335.795 L 262.549,335.795 L 262.549,335.795 L 262.549,335.795 L 262.549,336.131 L 262.549,336.131 L 262.549,336.131 L 262.549,336.131 L 262.549,336.131 L 262.549,336.131 L 262.549,336.131 L 262.549,336.131 L 262.549,336.467 L 262.549,336.467 L 262.549,336.467 L 262.549,336.467 L 262.549,336.467 L 262.549,336.467 L 262.549,336.467 L 262.549,336.467 L 262.549,336.467 L 262.549,336.807 L 262.549,336.807 L 262.885,336.807 L 262.885,336.807 L 262.885,336.807 L 262.885,336.807 L 262.885,337.143 L 262.885,337.143 L 262.885,337.143 L 262.885,337.143 L 262.885,337.143 L 262.885,337.143 L 263.22,337.479 L 263.22,337.479 L 263.22,337.479 L 263.22,337.479 L 263.22,337.815 L 263.22,337.815 L 263.22,337.815 L 263.556,337.815 L 263.556,338.151 L 263.556,338.151 L 263.556,338.151 L 263.556,338.487 L 263.556,338.487 L 263.892,338.487 L 263.892,338.823 L 263.892,338.823 L 263.892,338.823 L 263.892,339.159 L 264.228,339.159 L 264.228,339.159 L 264.228,339.494 L 264.228,339.494 L 264.228,339.83 L 264.564,339.83 L 264.564,339.83 L 264.564,340.166 L 264.564,340.166 L 264.564,340.502 L 264.9,340.502 L 264.9,340.838 L 264.9,340.838 L 264.9,340.838 L 265.236,341.174 L 265.236,341.174 L 265.236,341.51 L 265.236,341.51 L 265.572,341.846 L 265.572,341.846 L 265.572,342.182 L 265.572,342.182 L 265.908,342.182 L 265.908,342.518 L 265.908,342.518 L 266.244,342.854 L 266.244,342.854 L 266.244,342.854 L 266.244,343.19 L 266.58,343.19 L 266.58,343.526 L 266.58,343.526 L 266.916,343.526 L 266.916,343.862 L 266.916,343.862 L 266.916,343.862 L 267.252,344.198 L 267.252,344.198 L 267.252,344.198 L 267.588,344.198 L 267.588,344.534 L 267.588,344.534 L 267.924,344.534 L 267.924,344.534 L 267.924,344.869 L 267.924,344.869 L 268.259,344.869 L 268.259,344.869 L 268.259,344.869 L 268.595,344.869 L 268.595,345.205 L 268.595,345.205 L 268.931,345.205 L 268.931,345.205 L 268.931,345.205 L 269.267,345.205 L 269.267,345.205 L 269.267,345.205 L 269.603,345.205 L 269.603,345.205 L 269.603,345.205 L 269.939,345.205 L 269.939,345.205 L 269.939,345.205 L 270.275,345.205 L 270.275,345.205 L 270.275,345.205 L 270.611,345.205 L 270.611,345.205 L 270.611,345.205 L 270.947,345.205 L 270.947,345.205 L 270.947,345.205 L 271.283,345.205 L 271.283,345.205 L 271.619,345.205 L 271.619,345.205 L 271.619,345.205 L 271.955,345.205 L 271.955,345.205 L 271.955,345.205 L 272.291,345.205 L 272.291,345.205 L 272.291,345.205 L 272.627,345.205 L 272.627,345.205 L 272.627,345.205 L 272.963,345.541 L 272.963,345.541 L 272.963,345.541" id="path32" style="fill:none;stroke:#000000;stroke-width:1.86667001;stroke-linejoin:round"/>
    <path d="M 272.963,345.541 L 273.299,345.541 L 273.299,345.541 L 273.635,345.541 L 273.635,345.541 L 273.635,345.541 L 273.97,345.541 L 273.97,345.541 L 273.97,345.541 L 274.306,345.541 L 274.306,345.877 L 274.306,345.877 L 274.642,345.877 L 274.642,345.877 L 274.978,345.877 L 274.978,345.877 L 274.978,345.877 L 275.314,346.213 L 275.314,346.213 L 275.314,346.213 L 275.65,346.213 L 275.65,346.213 L 275.65,346.549 L 275.986,346.549 L 275.986,346.549 L 275.986,346.549 L 276.322,346.549 L 276.322,346.885 L 276.322,346.885 L 276.658,346.885 L 276.658,346.885 L 276.994,347.221 L 276.994,347.221 L 276.994,347.221 L 277.33,347.221 L 277.33,347.221 L 277.33,347.557 L 277.666,347.557 L 277.666,347.557 L 277.666,347.557 L 278.002,347.557 L 278.002,347.557 L 278.002,347.893 L 278.338,347.893 L 278.338,347.893 L 278.674,347.893 L 278.674,347.893 L 278.674,347.893 L 279.01,347.893 L 279.01,347.893 L 279.01,347.893 L 279.345,347.893 L 279.345,347.893 L 279.345,347.893 L 279.681,347.893 L 279.681,347.893 L 279.681,347.893 L 280.017,347.893 L 280.017,347.893 L 280.017,347.893 L 280.353,347.893 L 280.353,347.893 L 280.353,347.893 L 280.689,347.893 L 280.689,347.893 L 280.689,347.893 L 281.025,347.893 L 281.025,347.557 L 281.025,347.557 L 281.361,347.557 L 281.361,347.557 L 281.361,347.557 L 281.701,347.221 L 281.701,347.221 L 281.701,347.221 L 282.037,347.221 L 282.037,346.885 L 282.037,346.885 L 282.373,346.885 L 282.373,346.885 L 282.373,346.549 L 282.709,346.549 L 282.709,346.549 L 282.709,346.549 L 283.045,346.213 L 283.045,346.213 L 283.045,346.213 L 283.381,345.877 L 283.381,345.877 L 283.381,345.877 L 283.717,345.541 L 283.717,345.541 L 283.717,345.541 L 284.052,345.541 L 284.052,345.205 L 284.052,345.205 L 284.388,345.205 L 284.388,344.869 L 284.388,344.869 L 284.724,344.869 L 284.724,344.869 L 284.724,344.534 L 285.06,344.534 L 285.06,344.534 L 285.06,344.534 L 285.396,344.198 L 285.396,344.198 L 285.396,344.198 L 285.396,344.198 L 285.732,343.862 L 285.732,343.862 L 285.732,343.862 L 286.068,343.862 L 286.068,343.862 L 286.068,343.862 L 286.404,343.526 L 286.404,343.526 L 286.404,343.526 L 286.404,343.526 L 286.74,343.526 L 286.74,343.526 L 286.74,343.526 L 287.076,343.526 L 287.076,343.19 L 287.076,343.19 L 287.076,343.19 L 287.412,343.19 L 287.412,343.19 L 287.412,343.19 L 287.748,343.19 L 287.748,343.19 L 287.748,343.19 L 287.748,343.19 L 288.084,343.19 L 288.084,343.19 L 288.084,343.19 L 288.084,343.19 L 288.42,343.19 L 288.42,342.854 L 288.42,342.854 L 288.756,342.854 L 288.756,342.854 L 288.756,342.854 L 288.756,342.854 L 289.092,342.854 L 289.092,342.854 L 289.092,342.854 L 289.092,342.854 L 289.427,342.854 L 289.427,342.518 L 289.427,342.518 L 289.427,342.518 L 289.427,342.518 L 289.763,342.518 L 289.763,342.518 L 289.763,342.182 L 289.763,342.182 L 290.099,342.182 L 290.099,342.182 L 290.099,342.182 L 290.099,341.846 L 290.435,341.846 L 290.435,341.846 L 290.435,341.846 L 290.435,341.51 L 290.435,341.51 L 290.771,341.51 L 290.771,341.174 L 290.771,341.174 L 290.771,341.174 L 290.771,340.838 L 290.771,340.838 L 291.107,340.838 L 291.107,340.502 L 291.107,340.502 L 291.107,340.502 L 291.107,340.166 L 291.443,340.166 L 291.443,339.83 L 291.443,339.83 L 291.443,339.494 L 291.443,339.494 L 291.443,339.494 L 291.443,339.159 L 291.779,339.159 L 291.779,338.823 L 291.779,338.823 L 291.779,338.487 L 291.779,338.487 L 291.779,338.151 L 291.779,338.151 L 291.779,337.815 L 292.115,337.815 L 292.115,337.479 L 292.115,337.479 L 292.115,337.479 L 292.115,337.143 L 292.115,337.143 L 292.115,336.807 L 292.115,336.807 L 292.115,336.467 L 292.115,336.467 L 292.451,336.131 L 292.451,336.131 L 292.451,336.131 L 292.451,335.795 L 292.451,335.795 L 292.451,335.459 L 292.451,335.459 L 292.451,335.459 L 292.451,335.123 L 292.451,335.123 L 292.451,335.123 L 292.451,334.787 L 292.451,334.787 L 292.451,334.787 L 292.451,334.787 L 292.451,334.451 L 292.451,334.451" id="path34" style="fill:none;stroke:#000000;stroke-width:1.86667001;stroke-linejoin:round"/>
    <path d="M 265.908,326.053 L 263.892,324.373 L 261.877,322.694 L 259.857,321.35 L 258.177,319.67 L 256.162,317.991 L 254.146,316.311 L 252.131,314.963 L 250.115,313.284 L 248.099,311.94 L 246.084,310.26 L 243.732,308.916 L 241.717,307.573 L 239.701,305.893 L 237.681,304.549 L 235.33,303.205 L 233.314,301.862 L 231.299,300.518 L 228.947,299.174 L 226.931,297.83 L 224.58,296.823 L 222.228,295.479 L 220.213,294.131 L 217.857,293.123 L 215.842,291.78 L 213.49,290.772 L 211.138,289.428 L 208.787,288.42 L 206.771,287.412 L 204.42,286.069 L 202.068,285.061 L 199.717,284.053 L 197.361,283.045 L 195.009,282.037 L 192.658,281.366 L 190.306,280.358 L 187.955,279.35 L 185.603,278.342 L 183.252,277.67 L 180.9,276.662 L 178.213,275.991 L 175.857,275.319 L 173.506,274.311 L 171.154,273.635 L 168.802,272.963 L 166.115,272.291" id="path36" style="fill:none;stroke:#000000;stroke-width:0.93324971;stroke-linejoin:round;stroke-dasharray:2.79974914,2.79974914;stroke-miterlimit:4;stroke-dashoffset:0"/>
    <path d="M 340.834,441.635 L 339.826,439.284 L 339.154,436.932 L 338.482,434.58 L 337.474,432.229 L 336.802,429.877 L 335.795,427.526 L 334.787,425.174 L 334.115,422.487 L 333.107,420.131 L 332.099,417.78 L 331.092,415.764 L 330.084,413.412 L 329.076,411.061 L 327.732,408.709 L 326.724,406.358 L 325.717,404.006 L 324.709,401.991 L 323.361,399.635 L 322.353,397.284 L 321.01,395.268 L 319.666,392.916 L 318.658,390.565 L 317.314,388.549 L 315.97,386.198 L 314.627,384.182 L 313.283,381.83 L 311.939,379.815 L 310.595,377.795 L 309.252,375.444 L 307.908,373.428 L 306.228,371.412 L 304.885,369.397 L 303.205,367.381 L 301.857,365.366 L 300.513,363.35 L 298.834,361.334 L 297.154,359.319" id="path38" style="fill:none;stroke:#000000;stroke-width:0.93324971;stroke-linejoin:round;stroke-dasharray:2.79974914,2.79974914;stroke-miterlimit:4;stroke-dashoffset:0"/>
    <path d="M 297.154,359.319 L 295.81,357.299 L 294.131,355.284 L 292.451,353.268 L 290.771,351.252 L 289.092,349.573 L 287.412,347.557 L 285.732,345.541 L 284.052,343.862" id="path40" style="fill:none;stroke:#000000;stroke-width:0.93333298;stroke-linejoin:round;stroke-dasharray:6, 3"/>
    <path d="M 341.17,590.151 L 341.506,589.143 L 342.177,586.787 L 342.849,584.436 L 343.521,582.084 L 344.193,579.397 L 344.869,577.045 L 345.541,574.694 L 345.877,572.006 L 346.549,569.655 L 346.885,567.299 L 347.556,564.612 L 347.892,562.26 L 348.564,559.573 L 348.9,557.221 L 349.236,554.534 L 349.572,552.182 L 349.908,549.494 L 350.244,547.143 L 350.58,544.451 L 350.916,542.1 L 350.916,539.412 L 351.252,537.061 L 351.588,534.373 L 351.588,532.022 L 351.924,529.334 L 351.924,526.983 L 351.924,524.291 L 351.924,521.94 L 351.924,519.252 L 351.924,516.901 L 351.924,514.213 L 351.924,511.526 L 351.924,509.174 L 351.924,506.487 L 351.924,504.131 L 351.588,501.444 L 351.588,499.092 L 351.252,496.405 L 350.916,494.053 L 350.916,491.366 L 350.58,489.014 L 350.244,486.327 L 349.908,483.975 L 349.572,481.284 L 349.236,478.932 L 348.9,476.244 L 348.564,473.893 L 347.892,471.205 L 347.556,468.854 L 346.885,466.502 L 346.549,463.815 L 345.877,461.459" id="path42" style="fill:none;stroke:#000000;stroke-width:0.93324971;stroke-linejoin:round;stroke-dasharray:2.79974914,2.79974914;stroke-miterlimit:4;stroke-dashoffset:0"/>
    <path d="M 123.779,446.678 L 122.435,447.014 L 121.092,448.694 L 120.756,449.701 L 120.084,451.381 L 119.748,454.069 L 119.748,456.42 L 120.084,457.428 L 121.092,457.764 L 122.435,457.764 L 123.779,457.428 L 125.123,455.748 L 125.459,454.741 L 126.131,453.061 L 126.467,450.373 L 126.467,448.358 L 126.131,447.014 L 125.123,446.678 L 123.779,446.678 L 122.771,447.014 L 121.763,448.694 L 121.092,449.701 L 120.756,451.381 L 120.084,454.069 L 120.084,456.42 L 120.756,457.428 L 121.092,457.764 M 122.435,457.764 L 123.443,457.428 L 124.451,455.748 L 125.123,454.741 L 125.459,453.061 L 126.131,450.373 L 126.131,448.358 L 125.459,447.014 L 125.123,446.678 M 120.756,452.053 L 125.459,452.053" id="path44" style="fill:none;stroke:#000000;stroke-width:0.93333298;stroke-linejoin:round"/>
    <path d="M 98.2437,418.787 L 99.2516,418.787 L 100.26,418.787 L 101.267,418.787 L 102.275,418.787 L 103.283,418.787 L 104.291,418.787 L 105.299,418.787 L 106.306,419.123 L 107.314,419.123 L 108.322,419.123 L 108.994,419.459 L 110.002,419.459 L 111.009,419.459 L 112.017,419.795 L 113.025,419.795 L 114.037,420.131 L 115.045,420.131 L 116.052,420.131 L 117.06,420.467 L 117.732,420.807 L 118.74,420.807 L 119.748,421.143 L 120.756,421.143 L 121.763,421.479 L 122.771,421.815 L 123.443,422.151 L 124.451,422.151 L 125.459,422.487 L 126.467,422.823 L 127.474,423.159 L 128.146,423.494 L 129.154,423.83 L 130.162,424.166 L 131.17,424.166 L 131.842,424.502 L 132.849,425.174 L 133.857,425.51 L 134.869,425.846 L 135.541,426.182 L 136.549,426.518 L 137.556,426.854 L 138.228,427.19 L 139.236,427.526 L 140.244,428.198 L 140.916,428.534 L 141.924,428.869 L 142.931,429.205 L 143.603,429.877 L 144.611,430.213 L 145.283,430.549 L 146.291,431.221 L 146.963,431.557 L 147.97,432.229 L 148.642,432.565 L 149.65,433.237 L 150.322,433.573 L 151.33,434.244 L 152.002,434.916 L 153.009,435.252 L 153.681,435.924 L 154.689,436.26 L 155.361,436.932 L 156.037,437.604 L 157.045,438.276 L 157.717,438.612 L 158.388,439.284 L 159.396,439.955 L 160.068,440.627 L 160.74,441.299 L 161.412,441.635 L 162.42,442.311 L 163.092,442.983 L 163.763,443.655 L 164.435,444.327 L 165.107,444.998 L 165.779,445.67 L 166.451,446.342 L 167.459,447.014 M 166.115,439.619 L 167.795,447.35 L 159.732,446.342" id="path46" style="fill:none;stroke:#000000;stroke-width:0.93333298;stroke-linejoin:round"/>
    <path d="M 277.666,337.479 L 319.33,379.143 L 317.314,369.061 L 319.33,379.143 L 309.588,377.123" id="path48" style="fill:none;stroke:#000000;stroke-width:1.86667001;stroke-linejoin:round"/>
    <path d="M 98.2437,516.901 L 343.521,451.045" id="path50" style="fill:none;stroke:#000000;stroke-width:0.93333298;stroke-linejoin:round"/>
    <path d="M 355.619,443.991 L 355.283,443.991 L 355.283,443.655 L 355.283,443.655 L 355.283,443.655 L 354.947,443.655 L 354.947,443.655 L 354.947,443.655 L 354.947,443.655 L 354.611,443.655 L 354.611,443.655 L 354.611,443.655 L 354.611,443.655 L 354.275,443.655 L 354.275,443.655 L 354.275,443.655 L 353.939,443.655 L 353.939,443.655 L 353.939,443.655 L 353.939,443.655 L 353.603,443.655 L 353.603,443.655 L 353.603,443.655 L 353.267,443.655 L 353.267,443.655 L 353.267,443.655 L 352.931,443.655 L 352.931,443.655 L 352.931,443.655 L 352.595,443.655 L 352.595,443.655 L 352.595,443.319 L 352.259,443.319 L 352.259,443.319 L 351.924,443.319 L 351.924,443.319 L 351.924,443.319 L 351.588,443.319 L 351.588,443.319 L 351.588,443.319 L 351.252,443.319 L 351.252,443.319 L 350.916,442.983 L 350.916,442.983 L 350.916,442.983 L 350.58,442.983 L 350.58,442.983 L 350.244,442.983 L 350.244,442.983 L 350.244,442.647 L 349.908,442.647 L 349.908,442.647 L 349.572,442.647 L 349.572,442.647 L 349.236,442.311 L 349.236,442.311 L 349.236,442.311 L 348.9,442.311 L 348.9,441.975 L 348.564,441.975 L 348.564,441.975 L 348.228,441.975 L 348.228,441.635 L 347.892,441.635 L 347.892,441.635 L 347.556,441.635 L 347.556,441.635 L 347.22,441.299 L 347.22,441.299 L 347.22,441.299 L 346.885,441.299 L 346.885,440.963 L 346.549,440.963 L 346.549,440.963 L 346.213,440.963 L 346.213,440.963 L 345.877,440.627 L 345.877,440.627 L 345.541,440.627 L 345.541,440.627 L 345.205,440.627 L 345.205,440.627 L 344.869,440.627 L 344.869,440.291 L 344.529,440.291 L 344.529,440.291 L 344.193,440.291 L 344.193,440.291 L 343.857,440.291 L 343.857,440.291 L 343.521,440.291 L 343.521,440.291 L 343.185,440.291 L 343.185,440.291 L 342.849,440.291 L 342.849,440.291 L 342.513,440.291 L 342.513,440.291 L 342.177,440.291 L 342.177,440.291 L 341.842,440.627 L 341.842,440.627 L 341.506,440.627 L 341.506,440.627 L 341.17,440.627 L 341.17,440.627 L 340.834,440.627 L 340.498,440.963 L 340.498,440.963 L 340.162,440.963 L 340.162,440.963 L 339.826,441.299 L 339.826,441.299 L 339.49,441.299 L 339.49,441.299 L 339.154,441.635 L 339.154,441.635 L 338.818,441.635 L 338.818,441.635 L 338.482,441.975 L 338.482,441.975" id="path52" style="fill:none;stroke:#000000;stroke-width:1.86667001;stroke-linejoin:round"/>
    <path d="M 338.482,441.975 L 338.146,441.975 L 338.146,441.975 L 337.81,442.311 L 337.81,442.311 L 337.474,442.311 L 337.474,442.647 L 337.138,442.647 L 337.138,442.647 L 336.802,442.647 L 336.802,442.983 L 336.802,442.983 L 336.467,442.983 L 336.467,442.983 L 336.131,443.319 L 336.131,443.319 L 335.795,443.319 L 335.795,443.319 L 335.459,443.655 L 335.459,443.655 L 335.123,443.655 L 335.123,443.655 L 334.787,443.655 L 334.787,443.991 L 334.787,443.991 L 334.451,443.991 L 334.451,443.991 L 334.115,443.991 L 334.115,443.991 L 333.779,443.991 L 333.779,444.327 L 333.443,444.327 L 333.443,444.327 L 333.443,444.327 L 333.107,444.327 L 333.107,444.327 L 332.771,444.327 L 332.771,444.327 L 332.771,444.327 L 332.435,444.327 L 332.435,444.662 L 332.435,444.662 L 332.099,444.662 L 332.099,444.662 L 331.763,444.662 L 331.763,444.662 L 331.763,444.662 L 331.427,444.662 L 331.427,444.662 L 331.427,444.662 L 331.092,444.662 L 331.092,444.662 L 331.092,444.662 L 330.756,444.662 L 330.756,444.662 L 330.756,444.662 L 330.42,444.662 L 330.42,444.662 L 330.42,444.662 L 330.084,444.998 L 330.084,444.998 L 330.084,444.998 L 330.084,444.998 L 329.748,444.998 L 329.748,444.998 L 329.748,444.998 L 329.748,444.998 L 329.412,444.998 L 329.412,445.334 L 329.412,445.334 L 329.076,445.334 L 329.076,445.334 L 329.076,445.334 L 329.076,445.334 L 329.076,445.67 L 328.74,445.67 L 328.74,445.67 L 328.74,445.67 L 328.74,446.006 L 328.74,446.006 L 328.404,446.006 L 328.404,446.342 L 328.404,446.342 L 328.404,446.342 L 328.404,446.678 L 328.404,446.678 L 328.404,446.678 L 328.068,447.014 L 328.068,447.014 L 328.068,447.014 L 328.068,447.35 L 328.068,447.35 L 328.068,447.686 L 328.068,447.686 L 328.068,447.686 L 327.732,448.022 L 327.732,448.022 L 327.732,448.358 L 327.732,448.358 L 327.732,448.694 L 327.732,448.694 L 327.732,448.694 L 327.732,449.03 L 327.732,449.03 L 327.732,449.366 L 327.732,449.366 L 327.732,449.701 L 327.732,449.701 L 327.732,450.037 L 327.732,450.037 L 327.732,450.373 L 327.732,450.373 L 327.732,450.709 L 327.732,450.709 L 327.732,450.709 L 327.732,451.045 L 327.732,451.045 L 327.732,451.381 L 327.732,451.381 L 327.732,451.381 L 327.732,451.717 L 327.732,451.717 L 327.732,452.053 L 327.732,452.053 L 327.732,452.053 L 327.732,452.389 L 327.732,452.389 L 327.732,452.389 L 328.068,452.725 L 328.068,452.725 L 328.068,452.725 L 328.068,453.061 L 328.068,453.061 L 328.068,453.061 L 328.068,453.061 L 328.068,453.397 L 328.404,453.397 L 328.404,453.397 L 328.404,453.397 L 328.404,453.397 L 328.404,453.733 L 328.404,453.733 L 328.404,453.733 L 328.74,453.733 L 328.74,453.733 L 328.74,453.733 L 328.74,454.069 L 328.74,454.069 L 329.076,454.069 L 329.076,454.069 L 329.076,454.069 L 329.076,454.069 L 329.076,454.069 L 329.412,454.069 L 329.412,454.405 L 329.412,454.405 L 329.412,454.405 L 329.748,454.405 L 329.748,454.405 L 329.748,454.405 L 329.748,454.405 L 330.084,454.405 L 330.084,454.405 L 330.084,454.405 L 330.084,454.741 L 330.42,454.741 L 330.42,454.741 L 330.42,454.741 L 330.42,454.741 L 330.756,454.741 L 330.756,454.741 L 330.756,454.741 L 331.092,455.077 L 331.092,455.077 L 331.092,455.077 L 331.092,455.077 L 331.427,455.077 L 331.427,455.412 L 331.427,455.412 L 331.763,455.412 L 331.763,455.412 L 331.763,455.412 L 332.099,455.748 L 332.099,455.748 L 332.099,455.748 L 332.435,455.748 L 332.435,456.084 L 332.435,456.084 L 332.771,456.084 L 332.771,456.084 L 332.771,456.42 L 333.107,456.42 L 333.107,456.42 L 333.107,456.756 L 333.443,456.756 L 333.443,456.756 L 333.443,457.092 L 333.779,457.092 L 333.779,457.092 L 334.115,457.428 L 334.115,457.428 L 334.115,457.764 L 334.451,457.764 L 334.451,457.764 L 334.451,458.1 L 334.787,458.1 L 334.787,458.1 L 334.787,458.436 L 335.123,458.436 L 335.123,458.436 L 335.459,458.772 L 335.459,458.772 L 335.459,459.108 L 335.795,459.108 L 335.795,459.108 L 335.795,459.444 L 336.131,459.444 L 336.131,459.444 L 336.467,459.78 L 336.467,459.78 L 336.467,459.78 L 336.802,459.78 L 336.802,460.116 L 337.138,460.116 L 337.138,460.116 L 337.138,460.451 L 337.474,460.451 L 337.474,460.451 L 337.81,460.451 L 337.81,460.451 L 337.81,460.787 L 338.146,460.787 L 338.146,460.787 L 338.482,460.787 L 338.482,460.787 L 338.482,460.787 L 338.818,460.787 L 338.818,461.123 L 339.154,461.123 L 339.154,461.123 L 339.154,461.123 L 339.49,461.123 L 339.49,461.123 L 339.826,461.123 L 339.826,461.123 L 339.826,461.123 L 340.162,461.123 L 340.162,461.123 L 340.498,461.123 L 340.498,461.123 L 340.498,461.123 L 340.834,461.123 L 340.834,461.123 L 341.17,461.123 L 341.17,460.787 L 341.17,460.787 L 341.506,460.787 L 341.506,460.787 L 341.842,460.787 L 341.842,460.787 L 341.842,460.787 L 342.177,460.787 L 342.177,460.787 L 342.177,460.451 L 342.513,460.451 L 342.513,460.451 L 342.849,460.451 L 342.849,460.451 L 342.849,460.451 L 343.185,460.451 L 343.185,460.451 L 343.521,460.116 L 343.521,460.116 L 343.521,460.116 L 343.857,460.116 L 343.857,460.116 L 343.857,460.116 L 344.193,460.116 L 344.193,460.116 L 344.533,460.116 L 344.533,460.116 L 344.533,460.116 L 344.869,459.78 L 344.869,459.78 L 344.869,459.78 L 345.205,459.78 L 345.205,459.78 L 345.205,459.78 L 345.541,459.78 L 345.541,459.78 L 345.877,459.78 L 345.877,459.78 L 345.877,459.78 L 346.213,459.78 L 346.213,459.78 L 346.213,459.78 L 346.549,459.78 L 346.549,459.78 L 346.549,459.78 L 346.885,460.116 L 346.885,460.116" id="path54" style="fill:none;stroke:#000000;stroke-width:1.86667001;stroke-linejoin:round"/>
    <path d="M 346.885,460.116 L 346.885,460.116 L 347.22,460.116 L 347.22,460.116 L 347.22,460.116 L 347.556,460.116 L 347.556,460.116 L 347.556,460.116 L 347.892,460.116 L 347.892,460.116 L 347.892,460.116 L 348.228,460.116 L 348.228,460.451 L 348.228,460.451 L 348.564,460.451 L 348.564,460.451 L 348.564,460.451 L 348.9,460.451 L 348.9,460.451 L 348.9,460.451 L 349.236,460.451 L 349.236,460.451 L 349.236,460.451 L 349.572,460.451 L 349.572,460.451 L 349.572,460.451 L 349.908,460.451 L 349.908,460.451 L 349.908,460.451 L 349.908,460.451 L 350.244,460.451 L 350.244,460.451 L 350.244,460.451 L 350.58,460.451 L 350.58,460.451 L 350.58,460.451 L 350.916,460.451 L 350.916,460.116 L 350.916,460.116 L 350.916,460.116 L 351.252,460.116 L 351.252,460.116 L 351.252,460.116 L 351.588,459.78 L 351.588,459.78 L 351.588,459.78 L 351.588,459.78 L 351.924,459.444 L 351.924,459.444 L 351.924,459.444 L 351.924,459.444 L 352.259,459.108 L 352.259,459.108 L 352.259,459.108 L 352.259,458.772 L 352.595,458.772 L 352.595,458.772 L 352.595,458.436 L 352.595,458.436 L 352.931,458.436 L 352.931,458.1 L 352.931,458.1 L 352.931,457.764 L 353.267,457.764 L 353.267,457.764 L 353.267,457.428 L 353.267,457.428 L 353.603,457.092 L 353.603,457.092 L 353.603,457.092 L 353.603,456.756 L 353.939,456.756 L 353.939,456.42 L 353.939,456.42 L 353.939,456.42 L 353.939,456.084 L 354.275,456.084 L 354.275,455.748 L 354.275,455.748 L 354.275,455.748 L 354.611,455.412 L 354.611,455.412 L 354.611,455.412 L 354.611,455.077 L 354.611,455.077 L 354.947,455.077 L 354.947,454.741 L 354.947,454.741 L 354.947,454.741 L 354.947,454.405 L 355.283,454.405 L 355.283,454.405 L 355.283,454.405 L 355.283,454.069 L 355.283,454.069 L 355.283,454.069 L 355.619,454.069 L 355.619,453.733 L 355.619,453.733 L 355.619,453.733 L 355.619,453.733 L 355.619,453.733 L 355.955,453.733 L 355.955,453.397 L 355.955,453.397 L 355.955,453.397 L 355.955,453.397 L 355.955,453.397 L 356.291,453.397 L 356.291,453.061 L 356.291,453.061 L 356.291,453.061 L 356.291,453.061 L 356.291,453.061 L 356.291,453.061 L 356.627,453.061 L 356.627,453.061 L 356.627,453.061 L 356.627,452.725 L 356.627,452.725 L 356.627,452.725 L 356.627,452.725 L 356.627,452.725 L 356.627,452.725 L 356.963,452.725 L 356.963,452.725 L 356.963,452.389 L 356.963,452.389 L 356.963,452.389 L 356.963,452.389 L 356.963,452.389 L 356.963,452.389 L 356.963,452.389 L 356.963,452.053 L 357.299,452.053 L 357.299,452.053 L 357.299,452.053 L 357.299,452.053 L 357.299,451.717 L 357.299,451.717 L 357.299,451.717 L 357.299,451.717 L 357.299,451.381 L 357.299,451.381 L 357.299,451.381 L 357.299,451.045 L 357.299,451.045 L 357.299,451.045 L 357.299,451.045 L 357.299,450.709 L 357.299,450.709 L 357.299,450.373 L 357.299,450.373 L 357.299,450.373 L 357.299,450.037 L 357.299,450.037 L 357.299,450.037 L 357.299,449.701 L 357.299,449.701 L 357.299,449.366 L 357.299,449.366 L 357.299,449.03 L 357.299,449.03 L 357.299,449.03 L 357.299,448.694 L 357.299,448.694 L 357.299,448.358 L 357.299,448.358 L 357.299,448.022 L 357.299,448.022 L 357.299,447.686 L 357.299,447.686 L 357.299,447.686 L 357.299,447.35 L 357.299,447.35 L 357.299,447.014 L 356.963,447.014 L 356.963,446.678 L 356.963,446.678 L 356.963,446.678 L 356.963,446.342 L 356.963,446.342 L 356.963,446.006 L 356.963,446.006 L 356.963,445.67 L 356.963,445.67 L 356.627,445.67 L 356.627,445.334 L 356.627,445.334 L 356.627,445.334 L 356.627,444.998 L 356.627,444.998 L 356.627,444.998 L 356.291,444.998 L 356.291,444.662 L 356.291,444.662 L 356.291,444.662 L 356.291,444.327 L 356.291,444.327 L 355.955,444.327 L 355.955,444.327 L 355.955,444.327 L 355.955,444.327 L 355.955,443.991 L 355.619,443.991 L 355.619,443.991 L 355.619,443.991 L 355.619,443.991 L 355.619,443.991" id="path56" style="fill:none;stroke:#000000;stroke-width:1.86667001;stroke-linejoin:round"/>
    <path d="M 343.521,451.045 L 358.642,507.83 L 350.244,499.428 L 358.642,507.83 L 362.674,497.748" id="path58" style="fill:none;stroke:#000000;stroke-width:1.86667001;stroke-linejoin:round"/>
    <path d="M 98.2437,516.901 L 310.595,394.26" id="path60" style="fill:none;stroke:#000000;stroke-width:0.93333298;stroke-linejoin:round;stroke-dasharray:11.19999576,11.19999576;stroke-miterlimit:4;stroke-dashoffset:0"/>
    <path d="M 204.084,454.741 L 203.412,453.733 L 202.74,452.725 L 202.068,451.717 L 201.396,450.709 L 200.724,449.701 L 200.052,448.694 L 199.381,447.686 L 198.709,446.678 L 198.037,445.67 L 197.361,444.662 L 196.689,443.655 L 196.017,442.647 L 195.009,441.635 L 194.338,440.627 L 193.666,439.619 L 192.994,438.612 L 191.986,437.94 L 191.314,436.932 L 190.642,435.924 L 189.635,434.916 L 188.963,434.244 L 187.955,433.237 L 187.283,432.229 L 186.275,431.557 L 185.603,430.549 M 226.259,482.627 L 225.924,481.284 L 225.588,480.276 L 225.252,478.932 L 224.916,477.588 L 224.244,476.244 L 223.908,475.237 L 223.572,473.893 L 223.236,472.549 L 222.564,471.205 L 222.228,470.198 L 221.892,468.854 L 221.22,467.51 L 220.885,466.502 L 220.213,465.159 L 219.877,464.151 L 219.205,462.807 L 218.529,461.459 L 218.193,460.451 L 217.521,459.108 L 216.849,458.1 L 216.513,456.756 L 215.842,455.748 L 215.17,454.405 L 214.498,453.397 L 213.826,452.053 L 213.154,451.045" id="path62" style="fill:none;stroke:#000000;stroke-width:0.93333298;stroke-linejoin:round"/>
    <path d="M 197.701,428.869 L 197.701,430.549 L 197.701,432.229 L 198.037,434.58 L 199.381,437.268 L 200.724,438.948 L 202.74,440.627 L 205.092,441.635 L 206.771,442.311 L 208.451,442.647 M 197.701,430.549 L 198.037,432.901 L 198.709,434.58 L 199.717,436.932 L 201.06,438.612 L 203.076,440.291 L 204.756,441.299 L 206.771,442.311 M 206.771,430.213 L 209.459,436.932 M 206.771,430.213 L 209.795,436.596 M 209.459,428.198 L 213.826,433.573 M 209.459,428.198 L 214.162,433.237 M 204.42,433.237 L 204.756,431.893 L 205.763,430.213 L 211.138,426.182 M 204.42,433.237 L 205.092,432.229 L 206.099,430.885 L 211.474,426.518" id="path64" style="fill:none;stroke:#000000;stroke-width:0.93333298;stroke-linejoin:round"/>
    <path d="M 217.185,414.084 L 219.877,433.909 M 222.228,415.764 L 222.9,415.764 L 222.9,416.436 L 222.228,416.436 L 221.892,416.1 L 221.556,414.756 L 221.556,414.084 L 222.564,412.741 L 224.244,411.397 L 225.924,410.725" id="path66" style="fill:none;stroke:#000000;stroke-width:0.93333298;stroke-linejoin:round"/>
    <path d="M 225.924,410.725 L 226.595,410.725 L 227.939,411.397 L 228.611,412.405 L 228.611,413.412 L 227.939,415.092 L 226.595,417.78 L 225.924,418.787 L 225.924,420.467 L 226.259,421.815 L 227.267,423.159 M 224.244,411.397 L 225.588,411.061 L 226.259,411.061 L 227.267,411.733 L 227.939,412.405 L 228.275,413.748 L 227.603,415.428 L 226.595,417.78 M 226.595,422.487 L 226.931,421.815 L 227.603,421.143 L 230.627,420.131 L 231.635,419.123 L 232.306,418.116 L 232.306,417.444 M 227.603,421.143 L 230.963,420.467 L 232.642,419.459 L 232.642,418.451 L 232.306,417.444 L 231.635,416.436 M 227.603,406.022 L 229.283,406.358 L 230.963,406.694 L 233.314,408.037 L 235.33,409.717 L 236.674,411.397 L 238.017,413.748 L 238.353,416.1 L 238.353,418.116 L 238.353,419.795 M 229.283,406.358 L 231.299,407.366 L 232.978,408.373 L 234.994,410.053 L 236.338,411.733 L 237.345,414.084 L 238.017,415.764 L 238.353,418.116 M 239.361,408.037 L 247.092,401.991 M 248.099,390.229 L 248.099,391.909 L 248.099,393.588 L 248.771,395.94 L 249.779,398.627 L 251.123,400.311 L 253.138,401.991 L 255.49,402.998 L 257.17,403.67 L 258.849,404.006 M 248.099,391.909 L 248.435,394.26 L 249.107,395.604 L 250.115,398.291 L 251.459,399.975 L 253.474,401.655 L 255.154,402.662 L 257.17,403.67 M 255.49,387.541 L 254.482,388.885 L 254.818,390.901 L 254.818,391.909 L 255.49,393.588 L 256.834,395.94 L 258.177,397.619 L 259.185,398.291 L 260.193,397.955 L 261.205,397.284 L 262.213,395.94 L 261.877,393.924 L 261.877,392.916 L 261.205,391.237 L 259.857,388.885 L 258.513,387.205 L 257.506,386.534 L 256.498,386.869 L 255.49,387.541 L 255.154,388.549 L 255.154,390.565 L 255.49,391.573 L 255.826,393.252 L 257.17,395.604 L 258.513,397.284 L 259.521,397.955 L 260.193,397.955 M 261.205,397.284 L 261.541,396.276 L 261.541,394.26 L 261.205,393.252 L 260.869,391.573 L 259.521,389.221 L 258.177,387.205 L 257.17,386.869 L 256.498,386.869 M 256.162,393.588 L 260.193,390.565" id="path68" style="fill:none;stroke:#000000;stroke-width:0.93333298;stroke-linejoin:round"/>
    <path d="M 265.572,381.83 L 271.283,389.557 M 264.564,388.549 L 272.291,382.838 M 271.955,374.772 L 276.994,385.19 M 272.291,374.436 L 277.666,384.854 M 270.611,375.78 L 272.291,374.436 M 275.65,386.198 L 278.674,383.846 M 274.978,369.733 L 276.322,370.069 L 277.666,371.077 L 279.681,372.42 L 281.361,374.436 L 282.373,376.451 L 283.045,379.143 L 283.045,381.83 L 283.045,383.846 L 282.709,385.526 M 276.322,370.069 L 278.002,371.412 L 279.345,372.756 L 280.689,374.772 L 281.701,376.787 L 282.709,379.479 L 283.045,381.494 L 283.045,383.846" id="path70" style="fill:none;stroke:#000000;stroke-width:0.93333298;stroke-linejoin:round"/>
    <path d="M 69.0087,286.405 L 69.0087,516.901 L 73.7167,506.823 L 69.0087,516.901 L 63.9697,506.823 M 69.0087,256.838 L 69.0087,26.6777 L 73.7167,36.4197 L 69.0087,26.6777 L 63.9697,36.4197" id="path72" style="fill:none;stroke:#000000;stroke-width:0.93333298;stroke-linejoin:round"/>
    <path d="M 61.6187,265.237 L 59.2667,276.662 M 62.2906,265.237 L 59.9387,276.662 M 59.9387,265.237 L 66.6577,265.237 L 68.0016,265.909 L 68.3377,266.244 L 68.6737,267.252 L 68.6737,268.596 L 67.6656,269.604 L 66.9937,269.94 L 65.3137,270.612 L 60.9467,270.612 M 66.6577,265.237 L 67.3297,265.909 L 68.0016,266.244 L 68.3377,267.252 L 68.0016,268.596 L 67.3297,269.604 L 66.6577,269.94 L 65.3137,270.612 M 57.9237,276.662 L 61.6187,276.662 M 63.9697,270.612 L 64.6417,271.284 L 65.3137,271.619 L 65.9857,275.655 L 66.6577,275.991 L 66.9937,275.991 L 67.6656,275.655 M 64.6417,271.284 L 64.9777,272.291 L 65.3137,275.991 L 65.9857,276.662 L 66.9937,276.662 L 67.6656,275.655 L 67.6656,274.983" id="path74" style="fill:none;stroke:#000000;stroke-width:0.93333298;stroke-linejoin:round"/>
    <path d="M 75.0597,274.983 L 74.0517,275.319 L 73.0447,275.991 L 72.3727,276.998 L 72.0367,278.006 L 72.0367,279.014 L 72.3727,279.686 L 73.0447,280.694 L 74.0517,281.366 L 75.0597,281.701 L 75.7317,281.701 L 76.7397,281.366 L 77.7477,280.694 L 78.4197,279.686 L 78.7557,279.014 L 78.7557,278.006 L 78.4197,276.998 L 77.7477,275.991 L 76.7397,275.319 L 75.7317,274.983 L 75.0597,274.983 M 75.3957,278.006 L 75.0597,278.342 L 75.0597,278.678 L 75.3957,279.014 L 75.3957,279.014 L 75.7317,278.678 L 75.7317,278.342 L 75.3957,278.006 L 75.3957,278.006 M 75.3957,278.342 L 75.3957,278.678 L 75.3957,278.678 L 75.3957,278.342 L 75.3957,278.342" id="path76" style="fill:none;stroke:#000000;stroke-width:0.93333298;stroke-linejoin:round"/>
    <path d="M 199.045,387.877 L 196.689,398.963 M 199.381,387.877 L 197.025,398.963 M 197.361,387.877 L 203.748,387.877 L 205.092,388.213 L 205.763,388.885 L 206.099,389.893 L 205.763,390.901 L 205.092,392.244 L 204.42,392.58 L 202.74,393.252 L 198.373,393.252 M 203.748,387.877 L 204.756,388.213 L 205.092,388.885 L 205.427,389.893 L 205.092,390.901 L 204.42,392.244 L 203.748,392.58 L 202.74,393.252 M 195.009,398.963 L 198.709,398.963 M 201.06,393.252 L 202.068,393.588 L 202.404,394.26 L 203.412,397.955 L 203.748,398.627 L 204.42,398.627 L 204.756,397.955 M 202.068,393.588 L 202.404,394.932 L 202.74,398.627 L 203.076,398.963 L 204.084,398.963 L 204.756,397.955 L 205.092,397.619" id="path78" style="fill:none;stroke:#000000;stroke-width:0.93333298;stroke-linejoin:round"/>
    <path d="M 115.381,6.5177 L 116.388,5.50964 L 118.068,4.83765 L 117.396,4.50165 L 116.388,4.83765 L 115.381,6.5177 L 114.709,8.19769 L 114.709,9.87665 L 115.381,11.2206 L 115.717,11.8927 L 116.724,11.8927 L 118.068,11.2206 L 119.076,9.87665 L 119.412,8.19769 M 114.709,9.87665 L 115.381,10.8846 L 115.717,11.2206 L 116.724,11.2206 L 118.068,10.8846 L 119.076,9.87665 M 119.076,8.19769 L 119.076,9.87665 L 119.412,11.2206 L 120.084,11.8927 L 121.092,11.8927 L 122.099,11.2206 L 123.443,9.87665 L 123.779,8.19769 L 123.779,6.5177 L 123.443,4.83765 L 122.771,4.50165 L 122.099,4.83765 L 123.443,5.50964 L 123.779,6.5177 M 119.076,9.87665 L 119.412,10.8846 L 120.084,11.2206 L 121.092,11.2206 L 122.099,10.8846 L 123.443,9.87665" id="path80" style="fill:none;stroke:#000000;stroke-width:0.93333298;stroke-linejoin:round"/>
    <path d="M 129.49,10.2126 L 128.482,10.5486 L 127.474,11.2206 L 126.802,12.2287 L 126.467,13.2367 L 126.467,14.2437 L 126.802,15.2516 L 127.474,16.2596 L 128.482,16.9317 L 129.49,17.2677 L 130.162,17.2677 L 131.17,16.9317 L 132.177,16.2596 L 132.849,15.2516 L 133.185,14.2437 L 133.185,13.2367 L 132.849,12.2287 L 132.177,11.2206 L 131.17,10.5486 L 130.162,10.2126 L 129.49,10.2126 M 129.826,13.2367 L 129.49,13.5727 L 129.49,13.9087 L 129.826,14.2437 L 129.826,14.2437 L 130.162,13.9087 L 130.162,13.5727 L 129.826,13.2367 L 129.826,13.2367 M 129.826,13.5727 L 129.826,13.9087 L 129.826,13.9087 L 129.826,13.5727 L 129.826,13.5727" id="path82" style="fill:none;stroke:#000000;stroke-width:0.93333298;stroke-linejoin:round"/>
    <path d="M 136.549,0.466675 L 134.533,11.8927 M 137.22,0.466675 L 134.869,11.8927 M 135.205,0.466675 L 141.588,0.466675 L 142.931,1.1427 L 143.603,1.8147 L 143.939,2.82269 L 143.603,3.82965 L 142.931,4.83765 L 142.259,5.50964 L 140.58,5.84564 L 136.213,5.84564 M 141.588,0.466675 L 142.595,1.1427" id="path84" style="fill:none;stroke:#000000;stroke-width:0.93333298;stroke-linejoin:round"/>
    <path d="M 142.595,1.1427 L 142.931,1.8147 L 143.267,2.82269 L 142.931,3.82965 L 142.259,4.83765 L 141.588,5.50964 L 140.58,5.84564 M 132.849,11.8927 L 136.549,11.8927 M 138.9,5.84564 L 139.908,6.5177 L 140.244,7.1897 L 140.916,10.8846 L 141.588,11.2206 L 141.924,11.2206 L 142.595,10.8846 M 139.908,6.5177 L 140.244,7.5257 L 140.58,11.2206 L 140.916,11.8927 L 141.924,11.8927 L 142.595,10.8846 L 142.931,10.2126" id="path86" style="fill:none;stroke:#000000;stroke-width:0.93333298;stroke-linejoin:round"/>
    <path d="M 149.986,10.2126 L 148.978,10.5486 L 147.97,11.2206 L 147.299,12.2287 L 146.963,13.2367 L 146.963,14.2437 L 147.299,15.2516 L 147.97,16.2596 L 148.978,16.9317 L 149.986,17.2677 L 150.994,17.2677 L 152.002,16.9317 L 152.674,16.2596 L 153.345,15.2516 L 153.681,14.2437 L 153.681,13.2367 L 153.345,12.2287 L 152.674,11.2206 L 152.002,10.5486 L 150.994,10.2126 L 149.986,10.2126 M 150.322,13.2367 L 149.986,13.5727 L 149.986,13.9087 L 150.322,14.2437 L 150.658,14.2437 L 150.994,13.9087 L 150.994,13.5727 L 150.658,13.2367 L 150.322,13.2367 M 150.322,13.5727 L 150.322,13.9087 L 150.658,13.9087 L 150.658,13.5727 L 150.322,13.5727" id="path88" style="fill:none;stroke:#000000;stroke-width:0.93333298;stroke-linejoin:round"/>
    <path d="M 304.549,342.854 L 306.228,342.854 L 307.572,343.526 L 307.572,342.854 L 306.564,342.518 L 304.549,342.854 L 303.205,343.526 L 301.857,344.869 L 301.185,346.213 L 301.185,347.221 L 301.857,347.893 L 303.205,348.229 L 304.885,347.893 L 306.564,347.221 M 301.857,344.869 L 301.521,345.877 L 301.521,346.885 L 302.193,347.557 L 303.541,347.893 L 304.885,347.893 M 306.228,346.885 L 304.885,347.893 L 304.213,349.237 L 304.213,350.244 L 304.885,350.916 L 306.228,351.252 L 307.908,350.916 L 309.588,350.244 L 310.595,348.901 L 311.603,347.557 L 311.603,346.885 L 310.595,346.885 L 311.267,347.893 L 310.595,348.901 M 304.885,347.893 L 304.549,348.901 L 304.549,349.909 L 305.556,350.58 L 306.564,350.916 L 307.908,350.916" id="path90" style="fill:none;stroke:#000000;stroke-width:0.93333298;stroke-linejoin:round"/>
    <path d="M 317.986,347.557 L 308.244,354.276 M 318.322,348.229 L 308.58,354.612 M 316.642,346.549 L 321.345,351.252 L 322.017,352.596 L 322.017,353.268 L 321.345,354.276 L 320.338,354.948 L 318.994,354.948 L 318.322,354.948 L 316.642,354.276 L 313.619,351.252 M 321.345,351.252 L 321.681,352.26 L 321.345,352.932 L 321.01,353.94 L 320.002,354.612 L 318.658,354.612 L 317.986,354.612 L 316.642,354.276 M 306.9,352.932 L 309.588,355.619 M 315.635,352.932 L 315.97,354.276 L 315.635,354.948 L 313.619,357.975 L 313.619,358.647 L 313.955,359.319 L 314.963,359.319 M 315.97,354.276 L 315.299,354.948 L 312.947,357.975 L 312.611,358.647 L 313.619,359.319 L 314.963,359.319 L 315.299,358.983" id="path92" style="fill:none;stroke:#000000;stroke-width:0.93333298;stroke-linejoin:round"/>
    <path d="M 38.7707,531.686 L 39.4427,533.03 L 39.4427,530.006 L 38.7707,531.686 L 37.7626,530.342 L 36.0836,530.006 L 35.0757,530.006 L 33.3957,530.342 L 32.3876,531.686 L 32.0517,532.694 L 31.3807,534.373 L 31.3807,537.061 L 32.0517,538.405 L 32.3876,539.748 L 33.3957,540.756 L 35.0757,541.092 L 36.0836,541.092 L 37.7626,540.756 L 38.7707,539.748 M 35.0757,530.006 L 34.0677,530.342 L 33.0597,531.686 L 32.3876,532.694 L 32.0517,534.373 L 32.0517,537.061 L 32.3876,538.405 L 33.0597,539.748 L 34.0677,540.756 L 35.0757,541.092 M 38.7707,537.061 L 38.7707,541.092 M 39.4427,537.061 L 39.4427,541.092 M 37.4267,537.061 L 41.1227,537.061 M 44.8177,534.709 L 44.8177,535.381 L 44.1457,535.381 L 44.1457,534.709 L 44.8177,534.373 L 45.8257,533.701 L 48.1767,533.701 L 49.1847,534.373 L 49.8567,534.709 L 50.1927,535.717 L 50.1927,539.748 L 50.8687,540.756 L 51.2047,541.092 M 49.8567,534.709 L 49.8567,539.748 L 50.1927,540.756 L 51.2047,541.092 L 51.8766,541.092 M 49.8567,535.717 L 49.1847,536.389 L 45.8257,537.061 L 44.1457,537.397 L 43.8097,538.405 L 43.8097,539.748 L 44.1457,540.756 L 45.8257,541.092 L 47.5057,541.092 L 48.5126,540.756 L 49.8567,539.748 M 45.8257,537.061 L 44.8177,537.397 L 44.1457,538.405 L 44.1457,539.748 L 44.8177,540.756 L 45.8257,541.092 M 55.5717,530.006 L 55.5717,541.092 M 56.2437,530.006 L 56.2437,541.092 M 53.8917,530.006 L 56.2437,530.006 M 53.8917,541.092 L 57.9237,541.092 M 61.6187,534.709 L 61.6187,535.381 L 60.9467,535.381 L 60.9467,534.709 L 61.6187,534.373 L 62.6266,533.701 L 64.6417,533.701 L 65.9857,534.373 L 66.3217,534.709 L 66.9937,535.717 L 66.9937,539.748 L 67.3297,540.756 L 68.0016,541.092 M 66.3217,534.709 L 66.3217,539.748 L 66.9937,540.756 L 68.0016,541.092 L 68.6737,541.092 M 66.3217,535.717 L 65.9857,536.389 L 62.6266,537.061 L 60.9467,537.397 L 60.6107,538.405 L 60.6107,539.748 L 60.9467,540.756 L 62.6266,541.092 L 64.3056,541.092 L 65.3137,540.756 L 66.3217,539.748 M 62.6266,537.061 L 61.6187,537.397 L 60.9467,538.405 L 60.9467,539.748 L 61.6187,540.756 L 62.6266,541.092 M 77.7477,535.381 L 77.0757,535.717 L 77.7477,536.389 L 78.4197,535.717 L 78.4197,535.381 L 77.0757,534.373 L 76.0677,533.701 L 74.3876,533.701 L 73.0447,534.373 L 71.7007,535.381 L 71.3607,537.061 L 71.3607,538.069 L 71.7007,539.748 L 73.0447,540.756 L 74.3876,541.092 L 75.7317,541.092 L 77.0757,540.756 L 78.4197,539.748 M 74.3876,533.701 L 73.3807,534.373 L 72.3727,535.381 L 71.7007,537.061 L 71.7007,538.069 L 72.3727,539.748 L 73.3807,540.756 L 74.3876,541.092 M 82.4507,530.006 L 82.4507,539.077 L 83.1227,540.756 L 84.1307,541.092 L 85.1376,541.092 L 86.4817,540.756 L 86.8177,539.748 M 83.1227,530.006 L 83.1227,539.077 L 83.7947,540.756 L 84.1307,541.092 M 81.1067,533.701 L 85.1376,533.701 M 90.5126,530.006 L 90.1767,530.342 L 90.5126,531.014 L 91.1847,530.342 L 90.5126,530.006 M 90.5126,533.701 L 90.5126,541.092 M 91.1847,533.701 L 91.1847,541.092 M 89.1697,533.701 L 91.1847,533.701 M 89.1697,541.092 L 92.8687,541.092 M 101.939,535.381 L 101.603,535.717 L 101.939,536.389 L 102.611,535.717 L 102.611,535.381 L 101.603,534.373 L 100.26,533.701 L 98.9156,533.701 L 97.2357,534.373 L 96.2277,535.381 L 95.5556,537.061 L 95.5556,538.069 L 96.2277,539.748 L 97.2357,540.756 L 98.9156,541.092 L 99.9237,541.092 L 101.603,540.756 L 102.611,539.748 M 98.9156,533.701 L 97.5717,534.373 L 96.5637,535.381 L 96.2277,537.061 L 96.2277,538.069 L 96.5637,539.748 L 97.5717,540.756 L 98.9156,541.092 M 122.099,531.686 L 122.435,533.03 L 122.435,530.006 L 122.099,531.686 L 120.756,530.342 L 119.412,530.006 L 118.068,530.006 L 116.388,530.342 L 115.381,531.686 L 115.045,532.694 L 114.373,534.373 L 114.373,537.061 L 115.045,538.405 L 115.381,539.748 L 116.388,540.756 L 118.068,541.092 L 119.412,541.092 L 120.756,540.756 L 122.099,539.748 L 122.435,538.405 M 118.068,530.006 L 117.06,530.342" id="path94" style="fill:none;stroke:#000000;stroke-width:0.93333298;stroke-linejoin:round"/>
    <path d="M 117.06,530.342 L 116.052,531.686 L 115.381,532.694 L 115.045,534.373 L 115.045,537.061 L 115.381,538.405 L 116.052,539.748 L 117.06,540.756 L 118.068,541.092 M 126.131,537.061 L 132.849,537.061 L 132.849,535.717 L 132.177,534.709 L 131.506,534.373 L 130.498,533.701 L 128.818,533.701 L 127.474,534.373 L 126.131,535.381 L 125.795,537.061 L 125.795,538.069 L 126.131,539.748 L 127.474,540.756 L 128.818,541.092 L 130.162,541.092 L 131.506,540.756 L 132.849,539.748 M 132.177,537.061 L 132.177,535.381 L 131.506,534.373 M 128.818,533.701 L 127.81,534.373 L 126.802,535.381 L 126.131,537.061 L 126.131,538.069 L 126.802,539.748 L 127.81,540.756 L 128.818,541.092 M 136.885,533.701 L 136.885,541.092 M 137.556,533.701 L 137.556,541.092 M 137.556,535.381 L 138.564,534.373 L 140.244,533.701 L 141.252,533.701 L 142.931,534.373 L 143.603,535.381 L 143.603,541.092 M 141.252,533.701 L 142.595,534.373 L 142.931,535.381 L 142.931,541.092 M 135.541,533.701 L 137.556,533.701 M 135.541,541.092 L 139.236,541.092 M 141.252,541.092 L 145.283,541.092 M 148.978,530.006 L 148.978,539.077 L 149.314,540.756 L 150.658,541.092 L 151.666,541.092 L 152.674,540.756 L 153.345,539.748 M 149.314,530.006 L 149.314,539.077 L 149.986,540.756 L 150.658,541.092 M 147.299,533.701 L 151.666,533.701 M 156.373,537.061 L 162.756,537.061 L 162.756,535.717 L 162.42,534.709 L 161.748,534.373 L 160.74,533.701 L 159.06,533.701 L 157.381,534.373 L 156.373,535.381 L 156.037,537.061 L 156.037,538.069 L 156.373,539.748 L 157.381,540.756 L 159.06,541.092 L 160.068,541.092 L 161.748,540.756 L 162.756,539.748 M 162.42,537.061 L 162.42,535.381 L 161.748,534.373 M 159.06,533.701 L 158.052,534.373 L 157.045,535.381 L 156.373,537.061 L 156.373,538.069 L 157.045,539.748 L 158.052,540.756 L 159.06,541.092 M 167.123,533.701 L 167.123,541.092 M 167.795,533.701 L 167.795,541.092 M 167.795,537.061 L 168.467,535.381 L 169.474,534.373 L 170.482,533.701 L 172.162,533.701 L 172.498,534.373 L 172.498,534.709 L 172.162,535.381 L 171.49,534.709 L 172.162,534.373 M 165.443,533.701 L 167.795,533.701 M 165.443,541.092 L 169.474,541.092" id="path96" style="fill:none;stroke:#000000;stroke-width:0.93333298;stroke-linejoin:round"/>
    <path d="M 283.045,311.604 L 284.052,310.932 L 285.732,309.252 L 285.732,320.678 M 285.06,309.924 L 285.06,320.678 M 283.045,320.678 L 287.748,320.678" id="path98" style="fill:none;stroke:#000000;stroke-width:0.93333298;stroke-linejoin:round"/>
    <path d="M 350.58,424.166 L 350.916,424.838 L 350.58,425.174 L 349.908,424.838 L 349.908,424.166 L 350.58,423.159 L 350.916,422.487 L 352.595,422.151 L 354.947,422.151 L 356.291,422.487 L 356.963,423.159 L 357.635,424.166 L 357.635,425.174 L 356.963,426.518 L 355.283,427.526 L 352.595,428.534 L 351.588,429.205 L 350.58,430.213 L 349.908,431.893 L 349.908,433.573 M 354.947,422.151 L 355.955,422.487 L 356.291,423.159 L 356.963,424.166 L 356.963,425.174 L 356.291,426.518 L 354.947,427.526 L 352.595,428.534 M 349.908,432.229 L 350.58,431.893 L 351.588,431.893 L 354.275,432.901 L 355.955,432.901 L 356.963,432.229 L 357.635,431.893 M 351.588,431.893 L 354.275,433.573 L 356.291,433.573 L 356.963,432.901 L 357.635,431.893 L 357.635,430.549" id="path100" style="fill:none;stroke:#000000;stroke-width:0.93333298;stroke-linejoin:round"/>
    <path d="M 228.947,211.479 L 226.595,222.565 M 229.283,211.479 L 226.931,222.565 M 227.603,216.854 L 226.931,215.51 L 225.924,215.174 L 224.916,215.174 L 223.236,215.51 L 221.892,216.854 L 220.885,218.198 L 220.549,219.541 L 220.885,220.885 L 221.892,222.229 L 223.236,222.565 L 224.244,222.565 L 225.588,222.229 L 226.931,220.885 M 224.916,215.174 L 223.572,215.51 L 222.228,216.854 L 221.556,218.198 L 221.22,219.541 L 221.556,220.885 L 222.228,222.229 L 223.236,222.565 M 227.267,211.479 L 229.283,211.479 M 226.595,222.565 L 228.611,222.565" id="path102" style="fill:none;stroke:#000000;stroke-width:0.93333298;stroke-linejoin:round"/>
  </g>
  <style class="darkreader darkreader--fallback">html, body, body :not(iframe) {
    background-color: #1d1f20 !important;
    border-color: #776f63 !important;
    color: #e3e1de !important;
}</style>
</svg>